<svg width="64px" height="64px" fill="white" viewBox="0 0 256 256" id="Flat" xmlns="http://www.w3.org/2000/svg">
  <path transform="rotate(-180 128 132)" d="m116,72l0,88a48.05436,48.05436 0 0 1 -48,48a8,8 0 0 1 0,-16a32.036,32.036 0 0 0 32,-32l0,-8l-60,0a16.01833,16.01833 0 0 1 -16,-16l0,-64a16.01833,16.01833 0 0 1 16,-16l60,0a16.01833,16.01833 0 0 1 16,16zm100,-16l-60,0a16.01833,16.01833 0 0 0 -16,16l0,64a16.01833,16.01833 0 0 0 16,16l60,0l0,8a32.036,32.036 0 0 1 -32,32a8,8 0 0 0 0,16a48.05436,48.05436 0 0 0 48,-48l0,-88a16.01833,16.01833 0 0 0 -16,-16z" id="svg_1"/>

</svg>